<?xml version="1.0" encoding="utf-8"?>
<!-- Generator: Adobe Illustrator 26.0.1, SVG Export Plug-In . SVG Version: 6.00 Build 0)  -->
<svg version="1.1" id="Layer_1" xmlns="http://www.w3.org/2000/svg" xmlns:xlink="http://www.w3.org/1999/xlink" x="0px" y="0px"
	 viewBox="0 0 792 612" style="enable-background:new 0 0 792 612;" xml:space="preserve">
<style type="text/css">
	.st0{fill:#FFFFFF;}
	.st1{fill:#582E91;}
	.st2{fill:none;}
</style>
<path d="M466,331.3c10.1,10.1,20.2,20.2,30.3,30.3c0.1,0,0.4-0.2,0.6-0.4c6-4.9,13.3-4.5,18.8,0.9c15.2,15.1,30.3,30.3,45.4,45.4
	c14,14,27.9,28,42,41.9c1.7,1.7,1.2,3.5,1.2,5.4c0,0.3-0.4,0.6-0.7,0.9c-10.5,10.5-21,21-31.5,31.4c-0.4,0.4-1.1,0.7-1.7,0.7
	c-1.8,0.1-3.7,0-5.6,0c-0.3-0.3-0.6-0.5-0.9-0.8c-28.9-28.9-57.8-57.8-86.6-86.7c-2.1-2.1-3.6-4.5-4.1-7.4c-0.8-4.1,0.3-7.7,2.8-11
	c0.2-0.3,0.5-0.6,0.7-0.9c0,0,0-0.1,0,0c-10.2-10.2-20.3-20.3-30.4-30.4c0.1-0.1,0.1-0.3,0.2-0.4c-0.5,0.4-1,0.8-1.5,1.1
	c-16.7,12.8-35.4,21-56.1,24.6c-9.6,1.7-19.2,2.1-28.9,1.6c-12.7-0.7-25-3.3-37-7.8c-26.9-10.2-48-27.6-63.4-51.9
	c-8.8-13.9-14.4-29-17.3-45.2c-1.7-9.8-2.4-19.8-1.7-29.7c0.9-14.1,4-27.7,9.4-40.7c9.5-22.6,24.2-41,44.2-55.3
	c14.4-10.3,30.3-17.1,47.6-20.7c8-1.6,16.1-2.5,24.3-2.4c5.7,0.1,11.4,0,17.1,0.7c7,0.9,13.9,2.3,20.7,4.3
	c18.1,5.4,34.2,14.5,48.3,27.1c12.4,11.1,22.3,24.1,29.6,39.1c6.4,13.1,10.4,26.9,12,41.4c2.3,20.7-0.3,40.8-7.9,60.3
	c-4.7,12.1-11.1,23.2-19.2,33.3C466.4,330.7,466.2,331.1,466,331.3 M367.6,150.8c-55.4,0-100.1,44.8-100.1,100.1
	c0,55.3,44.8,100,100,100.1c54.7,0.1,100.3-44.1,100.3-100.3C467.7,195.6,422.8,150.8,367.6,150.8"/>
<path d="M418,439.7c-0.3,0.7-0.6,1.3-0.9,2c-4.6,13-9.3,26.1-13.9,39.1c-1,2.8-1.7,3.3-4.6,3.3c-1.4,0-2.7,0-4.1,0
	c-2.3-0.1-3.2-0.8-4-3.1c-4.5-13.1-9.1-26.2-13.6-39.3c-0.2-0.7-0.5-1.4-0.8-2.1c-0.1,0-0.3,0-0.4,0v1.9c0,12.9,0,25.8,0,38.6
	c0,3.3-0.6,3.9-3.9,3.9c-1.8,0-3.6,0-5.3-0.3c-1.5-0.2-1.8-0.7-1.8-2.2c0-0.4,0-0.9,0-1.3c0-15.2,0-30.3,0-45.5c0-1,0-2,0.2-2.9
	c0.2-2,1.5-3.5,3.6-3.6c3.5-0.1,7.1,0,10.6,0.2c3.1,0.2,4.9,2.2,5.9,5c1.4,3.8,2.8,7.6,4.2,11.5c2.4,6.7,4.9,13.5,7.3,20.2
	c0.2,0.6,0.5,1.1,0.8,2c0.4-0.9,0.7-1.4,1-2.1c2.8-7.4,5.6-14.8,8.4-22.2c1.1-3,2.2-6,3.4-9c0.2-0.5,0.4-1,0.6-1.5
	c1.1-2.8,3.3-4.1,6.2-4.2c2.8-0.1,5.5-0.1,8.3,0c2.8,0.1,4.4,1.6,4.5,4.5c0,0.5,0,1.1,0,1.6c0,15.5,0,31,0,46.4
	c0,2.5-0.6,3.2-3.1,3.3c-1.9,0-3.9,0-5.8-0.3c-1.7-0.3-2-0.8-2-2.6c0-12.4,0-24.8,0-37.2v-4.3C418.3,439.7,418.2,439.7,418,439.7"/>
<path d="M341.8,471.5c-0.5,0-1-0.1-1.4-0.1c-5.6,0-11.2,0-16.8,0c-2.1,0-2.4,0.2-3,2.2c-0.9,2.6-1.7,5.3-2.6,7.9
	c-0.7,2.1-1.4,2.6-3.6,2.6c-1.7,0-3.4,0-5.1,0c-2.6-0.1-3.4-1.1-2.6-3.5c1.5-4.6,3.2-9.2,4.8-13.8c4.1-11.9,8.3-23.7,12.3-35.6
	c0.6-1.9,1.6-3,3.7-3c3.2,0.1,6.5,0,9.7,0.1c1.2,0,2,0.7,2.5,1.8c0.6,1.7,1.3,3.3,1.8,5c5.1,14.6,10.1,29.2,15.2,43.8
	c0.3,0.8,0.6,1.6,0.8,2.5c0.4,1.7-0.3,2.6-2,2.8c-0.9,0.1-1.7,0-2.6,0c-1.4,0-2.8,0-4.2,0c-2.2-0.1-2.7-0.5-3.4-2.5
	c-0.9-2.7-1.8-5.4-2.8-8.2C342.4,472.7,342.1,472.1,341.8,471.5 M339.2,462.4c-2.5-7.5-4.7-14.7-7.4-21.9c-1,1.1-7.3,19.3-7.5,21.6
	C329.1,462.7,333.9,462.2,339.2,462.4"/>
<path d="M494.7,435.4c-0.1,0.8,0,1.6-0.2,2.4c-0.4,2.2-1.1,2.6-3.1,1.6c-1.5-0.7-2.9-1.4-4.4-2c-2.5-1-5.1-1.2-7.7-0.9
	c-2.3,0.3-4.1,1.6-4.9,3.8c-0.8,2.2-0.3,4.3,1.6,5.9c1.2,1,2.5,1.9,3.9,2.6c2.5,1.3,5,2.3,7.5,3.5c2.9,1.4,5.5,3.2,7.5,5.8
	c2.1,2.8,3,5.9,2.9,9.3c-0.1,3.9-1.2,7.5-3.6,10.6c-2.5,3.2-6,5-9.8,6c-6.2,1.6-12.3,1.2-18.3-1.2c-4-1.6-4.8-2.9-4.8-7.3
	c0-0.9,0.1-1.8,0.3-2.7c0.3-1.6,1.1-2,2.5-1.4c0.6,0.3,1.1,0.6,1.7,0.9c3.8,2.2,7.9,3.5,12.4,3.1c2.2-0.2,4.2-0.8,5.9-2.4
	c1.9-1.8,2.5-6.3-0.1-8.4c-1.3-1-2.7-2-4.2-2.8c-2.5-1.3-5.1-2.4-7.6-3.6c-3.5-1.8-6.6-4.2-8.4-7.9c-3.4-6.8-2-18.8,9.7-22.1
	c5.5-1.6,11-1.4,16.5,0.6C494,430.3,494.6,431.2,494.7,435.4"/>
<path d="M262.6,460.3c-0.2-9,0.8-16.1,5-22.5c4-6.1,9.8-9.3,17-10.2c5.2-0.7,10.2,0,14.9,2.3c0.5,0.2,0.9,0.5,1.4,0.8
	c1.5,0.8,2.6,2.1,2.7,3.8c0.1,1.7,0.2,3.5,0,5.2c-0.3,2.4-1.3,2.7-3.4,1.5c-1.9-1.1-3.7-2.2-5.7-3c-2.5-1.1-5.2-1.2-7.8-0.8
	c-4.2,0.7-7,3.3-9,6.8c-1.5,2.5-1.9,5.4-2.3,8.2c-0.5,4-0.3,8,0.7,11.9c0.6,2.5,1.7,4.8,3.5,6.7c2.1,2.3,4.7,3.4,7.7,3.7
	c4.7,0.5,9-0.6,12.8-3.3c2.7-1.8,3.7-0.9,3.7,1.8c0,1.6,0.1,3.1-0.1,4.7c-0.1,1.5-1.1,2.5-2.4,3.3c-2.5,1.4-5.1,2.4-7.9,2.9
	c-4.9,0.9-9.7,0.8-14.5-0.6c-7.8-2.3-12.6-7.7-14.7-15.4C263.2,465.2,262.9,461.9,262.6,460.3"/>
<path d="M452.8,456.3c0,8.2,0,16.4,0,24.6c0,2.2-0.4,2.9-2.5,3.1c-2.2,0.2-4.5,0.2-6.7,0c-2.2-0.2-2.6-0.8-2.6-3.2
	c0-10.3,0-20.5,0-30.8c0-6.2,0-12.4,0-18.6c0-2.6,0.3-3.1,2.9-3.2c1.9-0.1,3.9-0.1,5.8,0c2.4,0.2,2.9,0.7,2.9,3.2c0.1,3,0,6.1,0,9.1
	C452.9,445.8,452.9,451,452.8,456.3"/>
<path class="st0" d="M339.2,462.4c-5.3-0.2-10.1,0.3-14.9-0.3c0.2-2.3,6.5-20.5,7.5-21.6C334.4,447.7,336.7,454.9,339.2,462.4"/>
<path class="st1" d="M407.6,328.4h-77.9c-9.2,0-16.8-7.5-16.8-16.8V190.7c0-9.3,7.5-16.8,16.8-16.8h77.9c9.3,0,16.8,7.5,16.8,16.8
	v120.9C424.3,320.9,416.8,328.4,407.6,328.4"/>
<path class="st0" d="M343.9,279H330c-4,0-7.3-3.3-7.3-7.3c0-4,3.3-7.3,7.3-7.3h13.9c4,0,7.3,3.3,7.3,7.3
	C351.2,275.7,347.9,279,343.9,279"/>
<path class="st0" d="M407.2,279h-13.9c-4,0-7.3-3.3-7.3-7.3c0-4,3.3-7.3,7.3-7.3h13.9c4,0,7.3,3.3,7.3,7.3
	C414.5,275.7,411.3,279,407.2,279"/>
<path class="st0" d="M375.6,279h-13.9c-4,0-7.3-3.3-7.3-7.3c0-4,3.3-7.3,7.3-7.3h13.9c4,0,7.3,3.3,7.3,7.3
	C382.8,275.7,379.6,279,375.6,279"/>
<path class="st0" d="M343.9,297.7H330c-4,0-7.3-3.3-7.3-7.3c0-4,3.3-7.3,7.3-7.3h13.9c4,0,7.3,3.3,7.3,7.3
	C351.2,294.4,347.9,297.7,343.9,297.7"/>
<path class="st0" d="M407.2,297.7h-13.9c-4,0-7.3-3.3-7.3-7.3c0-4,3.3-7.3,7.3-7.3h13.9c4,0,7.3,3.3,7.3,7.3
	C414.5,294.4,411.3,297.7,407.2,297.7"/>
<path class="st0" d="M375.6,297.7h-13.9c-4,0-7.3-3.3-7.3-7.3c0-4,3.3-7.3,7.3-7.3h13.9c4,0,7.3,3.3,7.3,7.3
	C382.8,294.4,379.6,297.7,375.6,297.7"/>
<path class="st0" d="M343.9,316.4H330c-4,0-7.3-3.3-7.3-7.3c0-4,3.3-7.3,7.3-7.3h13.9c4,0,7.3,3.3,7.3,7.3
	C351.2,313.2,347.9,316.4,343.9,316.4"/>
<path class="st0" d="M407.2,316.4h-13.9c-4,0-7.3-3.3-7.3-7.3c0-4,3.3-7.3,7.3-7.3h13.9c4,0,7.3,3.3,7.3,7.3
	C414.5,313.2,411.3,316.4,407.2,316.4"/>
<path class="st0" d="M375.6,316.4h-13.9c-4,0-7.3-3.3-7.3-7.3c0-4,3.3-7.3,7.3-7.3h13.9c4,0,7.3,3.3,7.3,7.3
	C382.8,313.2,379.6,316.4,375.6,316.4"/>
<path class="st0" d="M405.8,246.2h-74.4c-3.9,0-7.1-3.2-7.1-7.1v-44.8c0-3.9,3.2-7.1,7.1-7.1h74.4c3.9,0,7.1,3.2,7.1,7.1v44.8
	C413,243,409.8,246.2,405.8,246.2"/>
<rect class="st2" width="792" height="612"/>
</svg>
